<svg version="1.1" xmlns="http://www.w3.org/2000/svg" xmlns:xlink="http://www.w3.org/1999/xlink" width="767.0908203125" height="1292"><defs/><g><g transform="translate(-278,-78) scale(1,1)"><rect fill="#ffffff" stroke="none" x="288" y="88" width="176" height="21"/></g><g transform="translate(-278,-78) scale(1,1)"><path fill="none" stroke="#000000" d="M 288 88 L 464 88 L 464 109 L 288 109 L 288 88 Z Z" stroke-miterlimit="10" stroke-width="2"/></g><g transform="translate(-278,-78) scale(1,1)"><path fill="none" stroke="#000000" d="M 288 1360 L 288 88 L 464 88 L 464 1360" stroke-miterlimit="10" stroke-width="2"/></g><g transform="translate(-278,-78) scale(1,1)"><g><path fill="none" stroke="none"/><text fill="#000000" stroke="none" font-family="Arial" font-size="13px" font-style="normal" font-weight="normal" text-decoration="none" x="342.760498046875" y="105">Interviewee</text></g></g><g transform="translate(-278,-78) scale(1,1)"><rect fill="#ffffff" stroke="none" x="920" y="96" width="115.0908203125" height="21"/></g><g transform="translate(-278,-78) scale(1,1)"><path fill="none" stroke="#000000" d="M 920 96 L 1035.0908203125 96 L 1035.0908203125 117 L 920 117 L 920 96 Z Z" stroke-miterlimit="10" stroke-width="2"/></g><g transform="translate(-278,-78) scale(1,1)"><path fill="none" stroke="#000000" d="M 920 1096 L 920 96 L 1035.0908203125 96 L 1035.0908203125 1096" stroke-miterlimit="10" stroke-width="2"/></g><g transform="translate(-278,-78) scale(1,1)"><g><path fill="none" stroke="none"/><text fill="#000000" stroke="none" font-family="Arial" font-size="13px" font-style="normal" font-weight="normal" text-decoration="none" x="945.75634765625" y="113">Interviewer</text></g></g><g transform="translate(-278,-78) scale(1,1)"><rect fill="#ffffff" stroke="none" x="576" y="96" width="240" height="21"/></g><g transform="translate(-278,-78) scale(1,1)"><path fill="none" stroke="#000000" d="M 576 96 L 816 96 L 816 117 L 576 117 L 576 96 Z Z" stroke-miterlimit="10" stroke-width="2"/></g><g transform="translate(-278,-78) scale(1,1)"><path fill="none" stroke="#000000" d="M 576 1080 L 576 96 L 816 96 L 816 1080" stroke-miterlimit="10" stroke-width="2"/></g><g transform="translate(-278,-78) scale(1,1)"><g><path fill="none" stroke="none"/><text fill="#000000" stroke="none" font-family="Arial" font-size="13px" font-style="normal" font-weight="normal" text-decoration="none" x="659.15185546875" y="113">HR Manager</text></g></g><g transform="translate(-278,-78) scale(1,1)"><path fill="#C0C0C0" stroke="none" d="M 687 152.5 C 687 147.2532944 691.2532944 143 696.5 143 C 701.7467056 143 706 147.2532944 706 152.5 C 706 157.7467056 701.7467056 162 696.5 162 C 691.2532944 162 687 157.7467056 687 152.5 Z" opacity="0.2"/></g><g transform="translate(-278,-78) scale(1,1)"><path fill="#000000" stroke="none" d="M 680 145.5 C 680 140.2532944 684.2532944 136 689.5 136 C 694.7467056 136 699 140.2532944 699 145.5 C 699 150.7467056 694.7467056 155 689.5 155 C 684.2532944 155 680 150.7467056 680 145.5 Z"/></g><g transform="translate(-278,-78) scale(1,1)"><path fill="#C0C0C0" stroke="none" d="M 617 215 L 775.76171875 215 Q 785.76171875 215 785.76171875 225 L 785.76171875 245 Q 785.76171875 255 775.76171875 255 L 617 255 Q 607 255 607 245 L 607 225 Q 607 215 617 215 Z" opacity="0.2"/></g><g transform="translate(-278,-78) scale(1,1)"><path fill="#ffffff" stroke="none" d="M 610 208 L 768.76171875 208 Q 778.76171875 208 778.76171875 218 L 778.76171875 238 Q 778.76171875 248 768.76171875 248 L 610 248 Q 600 248 600 238 L 600 218 Q 600 208 610 208 Z"/></g><g transform="translate(-278,-78) scale(1,1)"><path fill="none" stroke="#000000" d="M 610 208 L 768.76171875 208 Q 778.76171875 208 778.76171875 218 L 778.76171875 238 Q 778.76171875 248 768.76171875 248 L 610 248 Q 600 248 600 238 L 600 218 Q 600 208 610 208 Z" stroke-miterlimit="10"/></g><g transform="translate(-278,-78) scale(1,1)"><g><path fill="none" stroke="none"/><text fill="#000000" stroke="none" font-family="Arial" font-size="13px" font-style="normal" font-weight="bold" text-decoration="none" x="613.13916015625" y="227.5">Publish available positions</text></g></g><g transform="translate(-278,-78) scale(1,1)"><path fill="#C0C0C0" stroke="none" d="M 305 271 L 465.20263671875 271 Q 475.20263671875 271 475.20263671875 281 L 475.20263671875 301 Q 475.20263671875 311 465.20263671875 311 L 305 311 Q 295 311 295 301 L 295 281 Q 295 271 305 271 Z" opacity="0.2"/></g><g transform="translate(-278,-78) scale(1,1)"><path fill="#ffffff" stroke="none" d="M 298 264 L 458.20263671875 264 Q 468.20263671875 264 468.20263671875 274 L 468.20263671875 294 Q 468.20263671875 304 458.20263671875 304 L 298 304 Q 288 304 288 294 L 288 274 Q 288 264 298 264 Z"/></g><g transform="translate(-278,-78) scale(1,1)"><path fill="none" stroke="#000000" d="M 298 264 L 458.20263671875 264 Q 468.20263671875 264 468.20263671875 274 L 468.20263671875 294 Q 468.20263671875 304 458.20263671875 304 L 298 304 Q 288 304 288 294 L 288 274 Q 288 264 298 264 Z" stroke-miterlimit="10"/></g><g transform="translate(-278,-78) scale(1,1)"><g><path fill="none" stroke="none"/><text fill="#000000" stroke="none" font-family="Arial" font-size="13px" font-style="normal" font-weight="bold" text-decoration="none" x="302.2373046875" y="283.5">View recruitment positions</text></g></g><g transform="translate(-278,-78) scale(1,1)"><path fill="none" stroke="#000000" d="M 689 156 L 689 207" stroke-miterlimit="10"/></g><g transform="translate(-278,-78) scale(1,1)"><path fill="none" stroke="#000000" d="M 684.790482243984 196.83732514237585 L 689 207 L 693.209517756016 196.83732514237585" stroke-miterlimit="10"/></g><g transform="translate(-278,-78) scale(1,1)"><path fill="none" stroke="#000000" d="M 600 232 L 376 232 L 376 264" stroke-miterlimit="10"/></g><g transform="translate(-278,-78) scale(1,1)"><path fill="none" stroke="#000000" d="M 371.790482243984 253.83732514237585 L 376 264 L 380.209517756016 253.83732514237585" stroke-miterlimit="10"/></g><g transform="translate(-278,-78) scale(1,1)"><path fill="#C0C0C0" stroke="none" d="M 329 423 L 440.052734375 423 Q 450.052734375 423 450.052734375 433 L 450.052734375 453 Q 450.052734375 463 440.052734375 463 L 329 463 Q 319 463 319 453 L 319 433 Q 319 423 329 423 Z" opacity="0.2"/></g><g transform="translate(-278,-78) scale(1,1)"><path fill="#ffffff" stroke="none" d="M 322 416 L 433.052734375 416 Q 443.052734375 416 443.052734375 426 L 443.052734375 446 Q 443.052734375 456 433.052734375 456 L 322 456 Q 312 456 312 446 L 312 426 Q 312 416 322 416 Z"/></g><g transform="translate(-278,-78) scale(1,1)"><path fill="none" stroke="#000000" d="M 322 416 L 433.052734375 416 Q 443.052734375 416 443.052734375 426 L 443.052734375 446 Q 443.052734375 456 433.052734375 456 L 322 456 Q 312 456 312 446 L 312 426 Q 312 416 322 416 Z" stroke-miterlimit="10"/></g><g transform="translate(-278,-78) scale(1,1)"><g><path fill="none" stroke="none"/><text fill="#000000" stroke="none" font-family="Arial" font-size="13px" font-style="normal" font-weight="bold" text-decoration="none" x="322.24462890625" y="435.5">Apply for a position</text></g></g><g transform="translate(-278,-78) scale(1,1)"><path fill="#C0C0C0" stroke="none" d="M 337 351 L 430.75537109375 351 Q 440.75537109375 351 440.75537109375 361 L 440.75537109375 381 Q 440.75537109375 391 430.75537109375 391 L 337 391 Q 327 391 327 381 L 327 361 Q 327 351 337 351 Z" opacity="0.2"/></g><g transform="translate(-278,-78) scale(1,1)"><path fill="#ffffff" stroke="none" d="M 330 344 L 423.75537109375 344 Q 433.75537109375 344 433.75537109375 354 L 433.75537109375 374 Q 433.75537109375 384 423.75537109375 384 L 330 384 Q 320 384 320 374 L 320 354 Q 320 344 330 344 Z"/></g><g transform="translate(-278,-78) scale(1,1)"><path fill="none" stroke="#000000" d="M 330 344 L 423.75537109375 344 Q 433.75537109375 344 433.75537109375 354 L 433.75537109375 374 Q 433.75537109375 384 423.75537109375 384 L 330 384 Q 320 384 320 374 L 320 354 Q 320 344 330 344 Z" stroke-miterlimit="10"/></g><g transform="translate(-278,-78) scale(1,1)"><g><path fill="none" stroke="none"/><text fill="#000000" stroke="none" font-family="Arial" font-size="13px" font-style="normal" font-weight="bold" text-decoration="none" x="327.378662109375" y="363.5">Upload a resume</text></g></g><g transform="translate(-278,-78) scale(1,1)"><path fill="none" stroke="#000000" d="M 378 304 L 378 344" stroke-miterlimit="10"/></g><g transform="translate(-278,-78) scale(1,1)"><path fill="none" stroke="#000000" d="M 373.790482243984 333.83732514237585 L 378 344 L 382.209517756016 333.83732514237585" stroke-miterlimit="10"/></g><g transform="translate(-278,-78) scale(1,1)"><path fill="none" stroke="#000000" d="M 376 384 L 376 416" stroke-miterlimit="10"/></g><g transform="translate(-278,-78) scale(1,1)"><path fill="none" stroke="#000000" d="M 371.790482243984 405.83732514237585 L 376 416 L 380.209517756016 405.83732514237585" stroke-miterlimit="10"/></g><g transform="translate(-278,-78) scale(1,1)"><path fill="none" stroke="#000000" d="M 400 456 L 400 496 L 576 496" stroke-miterlimit="10"/></g><g transform="translate(-278,-78) scale(1,1)"><path fill="none" stroke="#000000" d="M 565.8373251423759 500.209517756016 L 576 496 L 565.8373251423758 491.790482243984" stroke-miterlimit="10"/></g><g transform="translate(-278,-78) scale(1,1)"><path fill="#C0C0C0" stroke="none" d="M 953 599 L 998.3544921875 599 Q 1008.3544921875 599 1008.3544921875 609 L 1008.3544921875 629 Q 1008.3544921875 639 998.3544921875 639 L 953 639 Q 943 639 943 629 L 943 609 Q 943 599 953 599 Z" opacity="0.2"/></g><g transform="translate(-278,-78) scale(1,1)"><path fill="#ffffff" stroke="none" d="M 946 592 L 991.3544921875 592 Q 1001.3544921875 592 1001.3544921875 602 L 1001.3544921875 622 Q 1001.3544921875 632 991.3544921875 632 L 946 632 Q 936 632 936 622 L 936 602 Q 936 592 946 592 Z"/></g><g transform="translate(-278,-78) scale(1,1)"><path fill="none" stroke="#000000" d="M 946 592 L 991.3544921875 592 Q 1001.3544921875 592 1001.3544921875 602 L 1001.3544921875 622 Q 1001.3544921875 632 991.3544921875 632 L 946 632 Q 936 632 936 622 L 936 602 Q 936 592 946 592 Z" stroke-miterlimit="10"/></g><g transform="translate(-278,-78) scale(1,1)"><g><path fill="none" stroke="none"/><text fill="#000000" stroke="none" font-family="Arial" font-size="13px" font-style="normal" font-weight="bold" text-decoration="none" x="942.667724609375" y="611.5">Interview</text></g></g><g transform="translate(-278,-78) scale(1,1)"><path fill="none" stroke="#000000" d="M 704 536 L 704 568 L 976 568 L 976 592" stroke-miterlimit="10"/></g><g transform="translate(-278,-78) scale(1,1)"><path fill="none" stroke="#000000" d="M 971.790482243984 581.8373251423759 L 976 592 L 980.209517756016 581.8373251423759" stroke-miterlimit="10"/></g><g transform="translate(-278,-78) scale(1,1)"><path fill="#C0C0C0" stroke="none" d="M 593 503 L 815.3271484375 503 Q 825.3271484375 503 825.3271484375 513 L 825.3271484375 533 Q 825.3271484375 543 815.3271484375 543 L 593 543 Q 583 543 583 533 L 583 513 Q 583 503 593 503 Z" opacity="0.2"/></g><g transform="translate(-278,-78) scale(1,1)"><path fill="#ffffff" stroke="none" d="M 586 496 L 808.3271484375 496 Q 818.3271484375 496 818.3271484375 506 L 818.3271484375 526 Q 818.3271484375 536 808.3271484375 536 L 586 536 Q 576 536 576 526 L 576 506 Q 576 496 586 496 Z"/></g><g transform="translate(-278,-78) scale(1,1)"><path fill="none" stroke="#000000" d="M 586 496 L 808.3271484375 496 Q 818.3271484375 496 818.3271484375 506 L 818.3271484375 526 Q 818.3271484375 536 808.3271484375 536 L 586 536 Q 576 536 576 526 L 576 506 Q 576 496 586 496 Z" stroke-miterlimit="10"/></g><g transform="translate(-278,-78) scale(1,1)"><g><path fill="none" stroke="none"/><text fill="#000000" stroke="none" font-family="Arial" font-size="13px" font-style="normal" font-weight="bold" text-decoration="none" x="590.580078125" y="515.5">Assign the corresponding interviewer</text></g></g><g transform="translate(-278,-78) scale(1,1)"><path fill="none" stroke="#000000" d="M 376 568 L 376 600 L 448 600 L 448 548 L 433 548" stroke-miterlimit="10"/></g><g transform="translate(-278,-78) scale(1,1)"><path fill="none" stroke="#000000" d="M 443.16267485762415 543.790482243984 L 433 548 L 443.16267485762415 552.209517756016" stroke-miterlimit="10"/></g><g transform="translate(-278,-78) scale(1,1)"><path fill="none" stroke="#000000" d="M 377 456 L 377 528" stroke-miterlimit="10"/></g><g transform="translate(-278,-78) scale(1,1)"><path fill="none" stroke="#000000" d="M 372.790482243984 517.8373251423759 L 377 528 L 381.209517756016 517.8373251423759" stroke-miterlimit="10"/></g><g transform="translate(-278,-78) scale(1,1)"><path fill="#C0C0C0" stroke="none" d="M 921 671 L 1029.208984375 671 Q 1039.208984375 671 1039.208984375 681 L 1039.208984375 701 Q 1039.208984375 711 1029.208984375 711 L 921 711 Q 911 711 911 701 L 911 681 Q 911 671 921 671 Z" opacity="0.2"/></g><g transform="translate(-278,-78) scale(1,1)"><path fill="#ffffff" stroke="none" d="M 914 664 L 1022.208984375 664 Q 1032.208984375 664 1032.208984375 674 L 1032.208984375 694 Q 1032.208984375 704 1022.208984375 704 L 914 704 Q 904 704 904 694 L 904 674 Q 904 664 914 664 Z"/></g><g transform="translate(-278,-78) scale(1,1)"><path fill="none" stroke="#000000" d="M 914 664 L 1022.208984375 664 Q 1032.208984375 664 1032.208984375 674 L 1032.208984375 694 Q 1032.208984375 704 1022.208984375 704 L 914 704 Q 904 704 904 694 L 904 674 Q 904 664 914 664 Z" stroke-miterlimit="10"/></g><g transform="translate(-278,-78) scale(1,1)"><g><path fill="none" stroke="none"/><text fill="#000000" stroke="none" font-family="Arial" font-size="13px" font-style="normal" font-weight="bold" text-decoration="none" x="912.8291015625" y="683.5">Score the interview</text></g></g><g transform="translate(-278,-78) scale(1,1)"><path fill="none" stroke="#000000" d="M 968 632 L 968 664" stroke-miterlimit="10"/></g><g transform="translate(-278,-78) scale(1,1)"><path fill="none" stroke="#000000" d="M 963.790482243984 653.8373251423759 L 968 664 L 972.209517756016 653.8373251423759" stroke-miterlimit="10"/></g><g transform="translate(-278,-78) scale(1,1)"><path fill="#C0C0C0" stroke="none" d="M 337 535 L 430.03173828125 535 Q 440.03173828125 535 440.03173828125 545 L 440.03173828125 565 Q 440.03173828125 575 430.03173828125 575 L 337 575 Q 327 575 327 565 L 327 545 Q 327 535 337 535 Z" opacity="0.2"/></g><g transform="translate(-278,-78) scale(1,1)"><path fill="#ffffff" stroke="none" d="M 330 528 L 423.03173828125 528 Q 433.03173828125 528 433.03173828125 538 L 433.03173828125 558 Q 433.03173828125 568 423.03173828125 568 L 330 568 Q 320 568 320 558 L 320 538 Q 320 528 330 528 Z"/></g><g transform="translate(-278,-78) scale(1,1)"><path fill="none" stroke="#000000" d="M 330 528 L 423.03173828125 528 Q 433.03173828125 528 433.03173828125 538 L 433.03173828125 558 Q 433.03173828125 568 423.03173828125 568 L 330 568 Q 320 568 320 558 L 320 538 Q 320 528 330 528 Z" stroke-miterlimit="10"/></g><g transform="translate(-278,-78) scale(1,1)"><g><path fill="none" stroke="none"/><text fill="#000000" stroke="none" font-family="Arial" font-size="13px" font-style="normal" font-weight="bold" text-decoration="none" x="328.102294921875" y="547.5">Check the status</text></g></g><g transform="translate(-278,-78) scale(1,1)"><path fill="#C0C0C0" stroke="none" d="M 625 783 L 754.8798828125 783 Q 764.8798828125 783 764.8798828125 793 L 764.8798828125 813 Q 764.8798828125 823 754.8798828125 823 L 625 823 Q 615 823 615 813 L 615 793 Q 615 783 625 783 Z" opacity="0.2"/></g><g transform="translate(-278,-78) scale(1,1)"><path fill="#ffffff" stroke="none" d="M 618 776 L 747.8798828125 776 Q 757.8798828125 776 757.8798828125 786 L 757.8798828125 806 Q 757.8798828125 816 747.8798828125 816 L 618 816 Q 608 816 608 806 L 608 786 Q 608 776 618 776 Z"/></g><g transform="translate(-278,-78) scale(1,1)"><path fill="none" stroke="#000000" d="M 618 776 L 747.8798828125 776 Q 757.8798828125 776 757.8798828125 786 L 757.8798828125 806 Q 757.8798828125 816 747.8798828125 816 L 618 816 Q 608 816 608 806 L 608 786 Q 608 776 618 776 Z" stroke-miterlimit="10"/></g><g transform="translate(-278,-78) scale(1,1)"><g><path fill="none" stroke="none"/><text fill="#000000" stroke="none" font-family="Arial" font-size="13px" font-style="normal" font-weight="bold" text-decoration="none" x="616.806884765625" y="795.5">Evaluate the candidate</text></g></g><g transform="translate(-278,-78) scale(1,1)"><path fill="none" stroke="#000000" d="M 968 704 L 968 736 L 688 736 L 688 776" stroke-miterlimit="10"/></g><g transform="translate(-278,-78) scale(1,1)"><path fill="none" stroke="#000000" d="M 683.790482243984 765.8373251423759 L 688 776 L 692.209517756016 765.8373251423759" stroke-miterlimit="10"/></g><g transform="translate(-278,-78) scale(1,1)"><path fill="#C0C0C0" stroke="none" d="M 361 663 L 406.3544921875 663 Q 416.3544921875 663 416.3544921875 673 L 416.3544921875 693 Q 416.3544921875 703 406.3544921875 703 L 361 703 Q 351 703 351 693 L 351 673 Q 351 663 361 663 Z" opacity="0.2"/></g><g transform="translate(-278,-78) scale(1,1)"><path fill="#ffffff" stroke="none" d="M 354 656 L 399.3544921875 656 Q 409.3544921875 656 409.3544921875 666 L 409.3544921875 686 Q 409.3544921875 696 399.3544921875 696 L 354 696 Q 344 696 344 686 L 344 666 Q 344 656 354 656 Z"/></g><g transform="translate(-278,-78) scale(1,1)"><path fill="none" stroke="#000000" d="M 354 656 L 399.3544921875 656 Q 409.3544921875 656 409.3544921875 666 L 409.3544921875 686 Q 409.3544921875 696 399.3544921875 696 L 354 696 Q 344 696 344 686 L 344 666 Q 344 656 354 656 Z" stroke-miterlimit="10"/></g><g transform="translate(-278,-78) scale(1,1)"><g><path fill="none" stroke="none"/><text fill="#000000" stroke="none" font-family="Arial" font-size="13px" font-style="normal" font-weight="bold" text-decoration="none" x="350.667724609375" y="675.5">Interview</text></g></g><g transform="translate(-278,-78) scale(1,1)"><path fill="none" stroke="#000000" d="M 664 536 L 664 608 L 368 608 L 368 656" stroke-miterlimit="10"/></g><g transform="translate(-278,-78) scale(1,1)"><path fill="none" stroke="#000000" d="M 363.790482243984 645.8373251423759 L 368 656 L 372.209517756016 645.8373251423759" stroke-miterlimit="10"/></g><g transform="translate(-278,-78) scale(1,1)"><path fill="#C0C0C0" stroke="none" d="M 679 864.5 L 690.5 855 L 701 864.5 L 690.5 873 L 679 864.5" opacity="0.2"/></g><g transform="translate(-278,-78) scale(1,1)"><path fill="#ffffff" stroke="none" d="M 672 857 L 683 848 L 694 857 L 683 866 L 672 857"/></g><g transform="translate(-278,-78) scale(1,1)"><path fill="none" stroke="#000000" d="M 672 857 L 683 848 L 694 857 L 683 866 L 672 857 L 672 857" stroke-miterlimit="10"/></g><g transform="translate(-278,-78) scale(1,1)"><path fill="none" stroke="#000000" d="M 682 816 L 682 848" stroke-miterlimit="10"/></g><g transform="translate(-278,-78) scale(1,1)"><path fill="none" stroke="#000000" d="M 677.790482243984 837.8373251423759 L 682 848 L 686.209517756016 837.8373251423759" stroke-miterlimit="10"/></g><g transform="translate(-278,-78) scale(1,1)"><path fill="#C0C0C0" stroke="none" d="M 649 919 L 736.96630859375 919 Q 746.96630859375 919 746.96630859375 929 L 746.96630859375 949 Q 746.96630859375 959 736.96630859375 959 L 649 959 Q 639 959 639 949 L 639 929 Q 639 919 649 919 Z" opacity="0.2"/></g><g transform="translate(-278,-78) scale(1,1)"><path fill="#ffffff" stroke="none" d="M 642 912 L 729.96630859375 912 Q 739.96630859375 912 739.96630859375 922 L 739.96630859375 942 Q 739.96630859375 952 729.96630859375 952 L 642 952 Q 632 952 632 942 L 632 922 Q 632 912 642 912 Z"/></g><g transform="translate(-278,-78) scale(1,1)"><path fill="none" stroke="#000000" d="M 642 912 L 729.96630859375 912 Q 739.96630859375 912 739.96630859375 922 L 739.96630859375 942 Q 739.96630859375 952 729.96630859375 952 L 642 952 Q 632 952 632 942 L 632 922 Q 632 912 642 912 Z" stroke-miterlimit="10"/></g><g transform="translate(-278,-78) scale(1,1)"><g><path fill="none" stroke="none"/><text fill="#000000" stroke="none" font-family="Arial" font-size="13px" font-style="normal" font-weight="bold" text-decoration="none" x="640.095947265625" y="931.5">Provide an offer</text></g></g><g transform="translate(-278,-78) scale(1,1)"><path fill="none" stroke="#000000" d="M 683 866 L 683 912" stroke-miterlimit="10"/></g><g transform="translate(-278,-78) scale(1,1)"><path fill="none" stroke="#000000" d="M 678.790482243984 901.8373251423759 L 683 912 L 687.209517756016 901.8373251423759" stroke-miterlimit="10"/></g><g transform="translate(-278,-78) scale(1,1)"><path fill="#C0C0C0" stroke="none" d="M 343 1064.5 L 354.5 1055 L 365 1064.5 L 354.5 1073 L 343 1064.5" opacity="0.2"/></g><g transform="translate(-278,-78) scale(1,1)"><path fill="#ffffff" stroke="none" d="M 336 1057 L 347 1048 L 358 1057 L 347 1066 L 336 1057"/></g><g transform="translate(-278,-78) scale(1,1)"><path fill="none" stroke="#000000" d="M 336 1057 L 347 1048 L 358 1057 L 347 1066 L 336 1057 L 336 1057" stroke-miterlimit="10"/></g><g transform="translate(-278,-78) scale(1,1)"><path fill="none" stroke="#000000" d="M 696 952 L 696 1008 L 344 1008 L 344 1048" stroke-miterlimit="10"/></g><g transform="translate(-278,-78) scale(1,1)"><path fill="none" stroke="#000000" d="M 339.790482243984 1037.837325142376 L 344 1048 L 348.209517756016 1037.837325142376" stroke-miterlimit="10"/></g><g transform="translate(-278,-78) scale(1,1)"><path fill="none" stroke="#000000" d="M 344 1066 L 344 1104" stroke-miterlimit="10"/></g><g transform="translate(-278,-78) scale(1,1)"><path fill="none" stroke="#000000" d="M 339.790482243984 1093.837325142376 L 344 1104 L 348.209517756016 1093.837325142376" stroke-miterlimit="10"/></g><g transform="translate(-278,-78) scale(1,1)"><path fill="#C0C0C0" stroke="none" d="M 359 915.5 C 359 908.59644 364.59644 903 371.5 903 C 378.40356 903 384 908.59644 384 915.5 C 384 922.40356 378.40356 928 371.5 928 C 364.59644 928 359 922.40356 359 915.5 Z" opacity="0.2"/></g><g transform="translate(-278,-78) scale(1,1)"><path fill="none" stroke="#000000" d="M 352 908.5 C 352 901.59644 357.59644 896 364.5 896 C 371.40356 896 377 901.59644 377 908.5 C 377 915.40356 371.40356 921 364.5 921 C 357.59644 921 352 915.40356 352 908.5 Z" stroke-miterlimit="10"/></g><g transform="translate(-278,-78) scale(1,1)"><path fill="#000000" stroke="none" d="M 357 908.5 C 357 904.357864 360.357864 901 364.5 901 C 368.642136 901 372 904.357864 372 908.5 C 372 912.642136 368.642136 916 364.5 916 C 360.357864 916 357 912.642136 357 908.5 Z"/></g><g transform="translate(-278,-78) scale(1,1)"><path fill="#C0C0C0" stroke="none" d="M 353 839 L 396.18994140625 839 Q 406.18994140625 839 406.18994140625 849 L 406.18994140625 869 Q 406.18994140625 879 396.18994140625 879 L 353 879 Q 343 879 343 869 L 343 849 Q 343 839 353 839 Z" opacity="0.2"/></g><g transform="translate(-278,-78) scale(1,1)"><path fill="#ffffff" stroke="none" d="M 346 832 L 389.18994140625 832 Q 399.18994140625 832 399.18994140625 842 L 399.18994140625 862 Q 399.18994140625 872 389.18994140625 872 L 346 872 Q 336 872 336 862 L 336 842 Q 336 832 346 832 Z"/></g><g transform="translate(-278,-78) scale(1,1)"><path fill="none" stroke="#000000" d="M 346 832 L 389.18994140625 832 Q 399.18994140625 832 399.18994140625 842 L 399.18994140625 862 Q 399.18994140625 872 389.18994140625 872 L 346 872 Q 336 872 336 862 L 336 842 Q 336 832 346 832 Z" stroke-miterlimit="10"/></g><g transform="translate(-278,-78) scale(1,1)"><g><path fill="none" stroke="none"/><text fill="#000000" stroke="none" font-family="Arial" font-size="13px" font-style="normal" font-weight="bold" text-decoration="none" x="341.94091796875" y="851.5">Rejected</text></g></g><g transform="translate(-278,-78) scale(1,1)"><path fill="none" stroke="#000000" d="M 672 857 L 399 857" stroke-miterlimit="10"/></g><g transform="translate(-278,-78) scale(1,1)"><path fill="none" stroke="#000000" d="M 409.16267485762415 852.790482243984 L 399 857 L 409.16267485762415 861.209517756016" stroke-miterlimit="10"/></g><g transform="translate(-278,-78) scale(1,1)"><path fill="none" stroke="#000000" d="M 366 873 L 365 895" stroke-miterlimit="10"/></g><g transform="translate(-278,-78) scale(1,1)"><path fill="none" stroke="#000000" d="M 361.25628748624484 884.656663177951 L 365 895 L 369.66663910167813 885.0389518877435" stroke-miterlimit="10"/></g><g transform="translate(-278,-78) scale(1,1)"><path fill="#C0C0C0" stroke="none" d="M 313 1111 L 387.24267578125 1111 Q 397.24267578125 1111 397.24267578125 1121 L 397.24267578125 1141 Q 397.24267578125 1151 387.24267578125 1151 L 313 1151 Q 303 1151 303 1141 L 303 1121 Q 303 1111 313 1111 Z" opacity="0.2"/></g><g transform="translate(-278,-78) scale(1,1)"><path fill="#ffffff" stroke="none" d="M 306 1104 L 380.24267578125 1104 Q 390.24267578125 1104 390.24267578125 1114 L 390.24267578125 1134 Q 390.24267578125 1144 380.24267578125 1144 L 306 1144 Q 296 1144 296 1134 L 296 1114 Q 296 1104 306 1104 Z"/></g><g transform="translate(-278,-78) scale(1,1)"><path fill="none" stroke="#000000" d="M 306 1104 L 380.24267578125 1104 Q 390.24267578125 1104 390.24267578125 1114 L 390.24267578125 1134 Q 390.24267578125 1144 380.24267578125 1144 L 306 1144 Q 296 1144 296 1134 L 296 1114 Q 296 1104 306 1104 Z" stroke-miterlimit="10"/></g><g transform="translate(-278,-78) scale(1,1)"><g><path fill="none" stroke="none"/><text fill="#000000" stroke="none" font-family="Arial" font-size="13px" font-style="normal" font-weight="bold" text-decoration="none" x="303.016845703125" y="1123.5">Take the offer</text></g></g><g transform="translate(-278,-78) scale(1,1)"><path fill="#C0C0C0" stroke="none" d="M 369 1167 L 456.9599609375 1167 Q 466.9599609375 1167 466.9599609375 1177 L 466.9599609375 1197 Q 466.9599609375 1207 456.9599609375 1207 L 369 1207 Q 359 1207 359 1197 L 359 1177 Q 359 1167 369 1167 Z" opacity="0.2"/></g><g transform="translate(-278,-78) scale(1,1)"><path fill="#ffffff" stroke="none" d="M 362 1160 L 449.9599609375 1160 Q 459.9599609375 1160 459.9599609375 1170 L 459.9599609375 1190 Q 459.9599609375 1200 449.9599609375 1200 L 362 1200 Q 352 1200 352 1190 L 352 1170 Q 352 1160 362 1160 Z"/></g><g transform="translate(-278,-78) scale(1,1)"><path fill="none" stroke="#000000" d="M 362 1160 L 449.9599609375 1160 Q 459.9599609375 1160 459.9599609375 1170 L 459.9599609375 1190 Q 459.9599609375 1200 449.9599609375 1200 L 362 1200 Q 352 1200 352 1190 L 352 1170 Q 352 1160 362 1160 Z" stroke-miterlimit="10"/></g><g transform="translate(-278,-78) scale(1,1)"><g><path fill="none" stroke="none"/><text fill="#000000" stroke="none" font-family="Arial" font-size="13px" font-style="normal" font-weight="bold" text-decoration="none" x="359.73095703125" y="1179.5">Refuse the offer</text></g></g><g transform="translate(-278,-78) scale(1,1)"><path fill="none" stroke="#000000" d="M 358 1056 L 424 1056 L 424 1160" stroke-miterlimit="10"/></g><g transform="translate(-278,-78) scale(1,1)"><path fill="none" stroke="#000000" d="M 419.790482243984 1149.837325142376 L 424 1160 L 428.209517756016 1149.837325142376" stroke-miterlimit="10"/></g><g transform="translate(-278,-78) scale(1,1)"><path fill="#C0C0C0" stroke="none" d="M 335 1235.5 C 335 1228.59644 340.59644 1223 347.5 1223 C 354.40356 1223 360 1228.59644 360 1235.5 C 360 1242.40356 354.40356 1248 347.5 1248 C 340.59644 1248 335 1242.40356 335 1235.5 Z" opacity="0.2"/></g><g transform="translate(-278,-78) scale(1,1)"><path fill="none" stroke="#000000" d="M 328 1228.5 C 328 1221.59644 333.59644 1216 340.5 1216 C 347.40356 1216 353 1221.59644 353 1228.5 C 353 1235.40356 347.40356 1241 340.5 1241 C 333.59644 1241 328 1235.40356 328 1228.5 Z" stroke-miterlimit="10"/></g><g transform="translate(-278,-78) scale(1,1)"><path fill="#000000" stroke="none" d="M 333 1228.5 C 333 1224.357864 336.357864 1221 340.5 1221 C 344.642136 1221 348 1224.357864 348 1228.5 C 348 1232.642136 344.642136 1236 340.5 1236 C 336.357864 1236 333 1232.642136 333 1228.5 Z"/></g><g transform="translate(-278,-78) scale(1,1)"><path fill="none" stroke="#000000" d="M 339 1144 L 339 1216" stroke-miterlimit="10"/></g><g transform="translate(-278,-78) scale(1,1)"><path fill="none" stroke="#000000" d="M 334.790482243984 1205.837325142376 L 339 1216 L 343.209517756016 1205.837325142376" stroke-miterlimit="10"/></g><g transform="translate(-278,-78) scale(1,1)"><path fill="#C0C0C0" stroke="none" d="M 407 1275.5 C 407 1268.59644 412.59644 1263 419.5 1263 C 426.40356 1263 432 1268.59644 432 1275.5 C 432 1282.40356 426.40356 1288 419.5 1288 C 412.59644 1288 407 1282.40356 407 1275.5 Z" opacity="0.2"/></g><g transform="translate(-278,-78) scale(1,1)"><path fill="none" stroke="#000000" d="M 400 1268.5 C 400 1261.59644 405.59644 1256 412.5 1256 C 419.40356 1256 425 1261.59644 425 1268.5 C 425 1275.40356 419.40356 1281 412.5 1281 C 405.59644 1281 400 1275.40356 400 1268.5 Z" stroke-miterlimit="10"/></g><g transform="translate(-278,-78) scale(1,1)"><path fill="#000000" stroke="none" d="M 405 1268.5 C 405 1264.357864 408.357864 1261 412.5 1261 C 416.642136 1261 420 1264.357864 420 1268.5 C 420 1272.642136 416.642136 1276 412.5 1276 C 408.357864 1276 405 1272.642136 405 1268.5 Z"/></g><g transform="translate(-278,-78) scale(1,1)"><path fill="none" stroke="#000000" d="M 412 1200 L 412 1256" stroke-miterlimit="10"/></g><g transform="translate(-278,-78) scale(1,1)"><path fill="none" stroke="#000000" d="M 407.790482243984 1245.837325142376 L 412 1256 L 416.209517756016 1245.837325142376" stroke-miterlimit="10"/></g></g></svg>